<?xml version="1.0" encoding="utf-8"?>
<!-- Generator: Adobe Illustrator 28.0.0, SVG Export Plug-In . SVG Version: 6.00 Build 0)  -->
<svg version="1.1" id="Слой_1" xmlns="http://www.w3.org/2000/svg" xmlns:xlink="http://www.w3.org/1999/xlink" x="0px" y="0px"
	 viewBox="0 0 1000 1000.000061" enable-background="new 0 0 1000 1000.000061" xml:space="preserve">
<g>
	<defs>
		<path id="SVGID_1_" d="M751.7000122,999.5374756c22.0958252-0.4625244,44.3458252-1.854187,66.1291504-5.7125244
			c22.0958252-4.0166016,42.7999878-10.1916504,62.8874512-20.5375366
			c19.9333496-9.8833008,38.0084229-23.0083618,53.6166992-38.4500122
			c15.604187-15.4416504,28.8916626-33.354187,38.7833252-52.9666748
			c10.1958008-19.9207764,16.6875-40.145874,20.7041626-62.0749512c4.0166626-21.6166992,5.2542114-43.5458374,5.7166748-65.4708862
			c0.3083496-10.0374756,0.3083496-20.0749512,0.4625244-30.1124878v-448.579071c0-10.0370789,0-20.0741577-0.4625244-30.1112518
			c-0.4625244-21.7729187-1.854187-43.8541718-5.7166748-65.4725037
			c-4.0166016-21.9270782-10.5083008-42.3104095-20.7041626-62.0754089
			c-10.0458374-19.456665-23.1791382-37.3687515-38.7833252-52.965004
			c-15.6082764-15.4416618-33.8374634-28.5669136-53.6166992-38.4495392
			c-20.2416382-10.0370846-40.791626-16.522583-62.8874512-20.5373764
			c-21.7833862-3.8604209-44.0333862-5.2501669-66.1292114-5.7134175c-4.1708374,0-8.3458862-0.1544162-15.1416626-0.3088325
			H291.2545776l-42.644989,0.4632541c-22.0954285,0.46325-44.3450012,1.8529958-66.1312561,5.7134166
			c-22.0950012,4.014792-42.7995911,10.3458748-62.8862534,20.5373764
			C99.659996,36.5966682,81.582077,49.7220879,65.9766617,65.1637573
			C50.3708305,80.605423,37.0828323,98.5175018,27.1940804,118.1283417
			c-10.3522911,19.9199982-16.6872902,40.1483459-20.7045841,62.0754242
			c-4.1718249,21.6183167-5.4079165,43.5453949-6.0259671,65.4725037C0.1545117,255.7133331,0.1545117,265.7504272,0,275.7875061
			v448.5791931c0,10.0374756,0.1545117,20.0749512,0.4635333,30.1124878
			c0.4635375,21.770752,1.8541417,43.854126,5.7169251,65.4708252c4.0173335,21.9291992,10.5067902,42.3125,20.7045841,62.0750122
			c10.0432491,19.458374,23.1766262,37.3708496,38.7824631,52.9666748
			c15.6058273,15.4416504,33.8379135,28.5666504,53.6154175,38.4500122
			c20.2412491,10.0374756,40.7912521,16.520813,62.8862381,20.5375366
			c21.7862549,3.8582764,44.0358276,5.249939,66.1312561,5.7124634c4.1716614,0,8.34375,0.1541748,15.1420898,0.3083496H685.104126
			l66.2875366-0.3083496C751.3916626,999.6917114,751.7000122,999.5375366,751.7000122,999.5374756z"/>
	</defs>
	<clipPath id="SVGID_00000029025719827558862620000011280257408831329698_">
		<use xlink:href="#SVGID_1_"  overflow="visible"/>
	</clipPath>
	<g clip-path="url(#SVGID_00000029025719827558862620000011280257408831329698_)">
		<path fill="#19AA1E" d="M0,0.0000041h1000v1000H0V0.0000041z"/>
		<path fill-rule="evenodd" clip-rule="evenodd" fill="#FFB919" d="M0,0.0000041h1000v328.125L0,171.875V0.0000041z"/>
		<path fill-rule="evenodd" clip-rule="evenodd" fill="#82D714" d="M0,890.625l1000-156.25V1000H0V890.625z"/>
		<path fill-rule="evenodd" clip-rule="evenodd" fill="#FFFFFF" d="M0,152.1070862l349.0579224,54.5395813
			C392.5095825,179.1425018,444.2041626,164.0625,500,164.0625c77.2791748,0,146.6916504,28.929184,197.2333374,79.730423
			c6.3791504,6.4104156,12.395874,13.1128998,18.0333862,20.0745697L1000,308.3562622v39.5362244l-255.8208008-39.9712524
			C763.1833496,344.3933411,773.4375,385.0295715,773.4375,426.5c0,53.5750122-11.9833374,106.9916992-36.7541504,160.625
			l-0.7541504,1.624939l-10.520874,22.541687h-24.8791504c-51.3707886,0-85.4458618,15.3666992-107.7249756,42.6000366
			c-17.4916382,21.3833618-27.6083374,50.208313-31.0125122,81.6583252l-0.104126,0.9833374l-0.4958496,5.0249634l-0.2125244,2.1875
			l-0.4041138,4.2750244c-1.3041992,14.041687-2.1750488,25.9500122-2.6166992,35.6541748L1000,714.6083374v39.5333252l-1000,156.25
			v-39.5333252l442.5375061-69.1499634l-0.1916504-8.874939l-0.0583191-2.5042114L442.25,789.0458984l-0.0708313-1.979187
			c-0.395813-10.7625122-1.3833618-24.5582886-2.9625244-41.2791748l-0.3041687-3.1707764l-0.5416565-5.4916992
			c-3.1749878-31.6166382-13.1416626-60.8082886-30.5870667-82.5083008
			c-22.0454102-27.416687-55.8070679-43.0083008-106.7645874-43.3208008l-1.5495911-0.0042114h-24.8771057l-10.5204163-22.541687
			c-25.282486-54.1791382-37.5095673-108.1333313-37.5095673-162.2499695
			c0-68.0549927,27.6095886-133.862915,76.2041473-182.7070923c1.4029236-1.4100189,2.8200073-2.8033295,4.2516785-4.1795807
			L0,191.6425018C0,191.6425018,0,152.1071014,0,152.1070862z"/>
		<path fill-rule="evenodd" clip-rule="evenodd" fill="#0073FA" d="M500,203.125c139.6083374,0,234.375,107.4570923,234.375,223.375
			c0,46.5374756-10.1541748,94.9625244-33.8458252,145.729126c-137.375,0-171.2833252,98.3833618-177.6958008,160.2833252
			l-0.4083862,4.125061c-2.1749878,22.0916138-3.4291382,39.8167114-3.7749634,53.1791992l-37.208313,5.8167114
			l-0.0083618-1.2042236c-0.1416626-14.0083618-1.4666748-33.6583252-3.9708252-58.9500122l-0.1083069-1.104187
			c-5.9250183-61.7666016-39.1208496-162.145874-177.8845825-162.145874
			C275.7783813,521.4624634,265.6250305,473.0374756,265.6250305,426.5C265.6250305,310.5820923,360.3904724,203.125,500,203.125z"
			/>
	</g>
</g>
</svg>
